# xmcd
# 
# Track frame offsets:
#   150
#   17971
#   32979
#   52686
#   70436
#   89263
#   128925
# 
# Disc length: 2000 seconds
# 
# Revision: 0
# Processed by: cddbd v1.5.2PL0 Copyright (c) Steve Scherf et al.
# Submitted via: Synapstar 1.0 
# 
DISCID=5b07ce07
DTITLE=Various Artist - New 2
DYEAR=1900
DGENRE=Country
TTITLE0=Keith Urban - You Look Good In My Shirt
TTITLE1=Jo Dee Messina - Biker Chick
TTITLE2=Jamey Johnson - In Color
TTITLE3=Jason Aldean - Relentless
TTITLE4=Taylor Swift - Love Story
TTITLE5=Metallica - Master Of Puppets
TTITLE6=The Mavericks - All You Ever Do Is Bring Me Down
EXTD=MediaType: Karaoke CD+G Producer: Unknown
EXTT0=
EXTT1=
EXTT2=
EXTT3=
EXTT4=
EXTT5=
EXTT6=
PLAYORDER=
